<mxfile host="app.diagrams.net" agent="Mozilla/5.0 (Macintosh; Intel Mac OS X 10_15_7) AppleWebKit/605.1.15 (KHTML, like Gecko) Version/17.4 Safari/605.1.15" version="24.7.17">
  <diagram name="Page-1" id="QOTmVWTPxS_oVRlYCT83">
    <mxGraphModel dx="880" dy="489" grid="1" gridSize="10" guides="1" tooltips="1" connect="1" arrows="1" fold="1" page="1" pageScale="1" pageWidth="827" pageHeight="1169" math="0" shadow="0">
      <root>
        <mxCell id="0" />
        <mxCell id="1" parent="0" />
        <mxCell id="iOKhz7QeR-Qw47BpOMEN-13" value="Docker" style="rounded=1;whiteSpace=wrap;html=1;fillColor=#dae8fc;strokeColor=#6c8ebf;horizontal=1;verticalAlign=top;" vertex="1" parent="1">
          <mxGeometry x="190" y="50" width="460" height="320" as="geometry" />
        </mxCell>
        <mxCell id="iOKhz7QeR-Qw47BpOMEN-16" style="edgeStyle=orthogonalEdgeStyle;rounded=0;orthogonalLoop=1;jettySize=auto;html=1;startArrow=classic;startFill=1;" edge="1" parent="1" target="iOKhz7QeR-Qw47BpOMEN-15">
          <mxGeometry relative="1" as="geometry">
            <mxPoint x="149.99997999999505" y="228.5" as="sourcePoint" />
          </mxGeometry>
        </mxCell>
        <mxCell id="iOKhz7QeR-Qw47BpOMEN-10" value="Controlador de BBDD" style="rounded=0;whiteSpace=wrap;html=1;" vertex="1" parent="1">
          <mxGeometry x="250" y="121.55" width="130" height="56.91" as="geometry" />
        </mxCell>
        <mxCell id="iOKhz7QeR-Qw47BpOMEN-14" value="Controlador de caché" style="rounded=0;whiteSpace=wrap;html=1;" vertex="1" parent="1">
          <mxGeometry x="250" y="280" width="130" height="56.91" as="geometry" />
        </mxCell>
        <mxCell id="iOKhz7QeR-Qw47BpOMEN-15" value="WebApp" style="rounded=0;whiteSpace=wrap;html=1;" vertex="1" parent="1">
          <mxGeometry x="250" y="200" width="130" height="56.91" as="geometry" />
        </mxCell>
        <mxCell id="iOKhz7QeR-Qw47BpOMEN-17" value="Base de datos" style="rounded=0;whiteSpace=wrap;html=1;" vertex="1" parent="1">
          <mxGeometry x="480" y="160" width="130" height="56.91" as="geometry" />
        </mxCell>
        <mxCell id="iOKhz7QeR-Qw47BpOMEN-18" value="Caché" style="rounded=0;whiteSpace=wrap;html=1;" vertex="1" parent="1">
          <mxGeometry x="480" y="240" width="130" height="56.91" as="geometry" />
        </mxCell>
        <mxCell id="iOKhz7QeR-Qw47BpOMEN-19" value="" style="endArrow=classic;startArrow=classic;html=1;rounded=0;entryX=0;entryY=0.25;entryDx=0;entryDy=0;exitX=1;exitY=0.75;exitDx=0;exitDy=0;" edge="1" parent="1" source="iOKhz7QeR-Qw47BpOMEN-15" target="iOKhz7QeR-Qw47BpOMEN-18">
          <mxGeometry width="50" height="50" relative="1" as="geometry">
            <mxPoint x="240" y="260" as="sourcePoint" />
            <mxPoint x="290" y="210" as="targetPoint" />
          </mxGeometry>
        </mxCell>
        <mxCell id="iOKhz7QeR-Qw47BpOMEN-20" value="" style="endArrow=classic;startArrow=classic;html=1;rounded=0;entryX=0;entryY=0.75;entryDx=0;entryDy=0;exitX=1;exitY=0.25;exitDx=0;exitDy=0;" edge="1" parent="1" source="iOKhz7QeR-Qw47BpOMEN-15" target="iOKhz7QeR-Qw47BpOMEN-17">
          <mxGeometry width="50" height="50" relative="1" as="geometry">
            <mxPoint x="240" y="260" as="sourcePoint" />
            <mxPoint x="290" y="210" as="targetPoint" />
          </mxGeometry>
        </mxCell>
        <mxCell id="iOKhz7QeR-Qw47BpOMEN-21" value="" style="endArrow=classic;startArrow=classic;html=1;rounded=0;entryX=0;entryY=0.25;entryDx=0;entryDy=0;exitX=1;exitY=0.5;exitDx=0;exitDy=0;" edge="1" parent="1" source="iOKhz7QeR-Qw47BpOMEN-10" target="iOKhz7QeR-Qw47BpOMEN-17">
          <mxGeometry width="50" height="50" relative="1" as="geometry">
            <mxPoint x="240" y="260" as="sourcePoint" />
            <mxPoint x="290" y="210" as="targetPoint" />
          </mxGeometry>
        </mxCell>
        <mxCell id="iOKhz7QeR-Qw47BpOMEN-22" value="" style="endArrow=classic;startArrow=classic;html=1;rounded=0;entryX=0;entryY=0.75;entryDx=0;entryDy=0;exitX=1;exitY=0.5;exitDx=0;exitDy=0;" edge="1" parent="1" source="iOKhz7QeR-Qw47BpOMEN-14" target="iOKhz7QeR-Qw47BpOMEN-18">
          <mxGeometry width="50" height="50" relative="1" as="geometry">
            <mxPoint x="240" y="260" as="sourcePoint" />
            <mxPoint x="290" y="210" as="targetPoint" />
          </mxGeometry>
        </mxCell>
        <mxCell id="iOKhz7QeR-Qw47BpOMEN-24" value="Puerto expuesto" style="ellipse;whiteSpace=wrap;html=1;" vertex="1" parent="1">
          <mxGeometry x="80" y="114.22999999999999" width="70" height="71.54" as="geometry" />
        </mxCell>
        <mxCell id="iOKhz7QeR-Qw47BpOMEN-25" value="Puerto expuesto" style="ellipse;whiteSpace=wrap;html=1;" vertex="1" parent="1">
          <mxGeometry x="80" y="192.69" width="70" height="71.54" as="geometry" />
        </mxCell>
        <mxCell id="iOKhz7QeR-Qw47BpOMEN-28" value="" style="endArrow=classic;startArrow=classic;html=1;rounded=0;entryX=0;entryY=0.5;entryDx=0;entryDy=0;exitX=1;exitY=0.5;exitDx=0;exitDy=0;" edge="1" parent="1" source="iOKhz7QeR-Qw47BpOMEN-24" target="iOKhz7QeR-Qw47BpOMEN-10">
          <mxGeometry width="50" height="50" relative="1" as="geometry">
            <mxPoint x="240" y="260" as="sourcePoint" />
            <mxPoint x="290" y="210" as="targetPoint" />
          </mxGeometry>
        </mxCell>
        <mxCell id="iOKhz7QeR-Qw47BpOMEN-29" value="Puerto expuesto" style="ellipse;whiteSpace=wrap;html=1;" vertex="1" parent="1">
          <mxGeometry x="80" y="272.69" width="70" height="71.54" as="geometry" />
        </mxCell>
        <mxCell id="iOKhz7QeR-Qw47BpOMEN-30" value="" style="endArrow=classic;startArrow=classic;html=1;rounded=0;exitX=1;exitY=0.5;exitDx=0;exitDy=0;entryX=0;entryY=0.5;entryDx=0;entryDy=0;" edge="1" parent="1" source="iOKhz7QeR-Qw47BpOMEN-29" target="iOKhz7QeR-Qw47BpOMEN-14">
          <mxGeometry width="50" height="50" relative="1" as="geometry">
            <mxPoint x="240" y="260" as="sourcePoint" />
            <mxPoint x="290" y="210" as="targetPoint" />
          </mxGeometry>
        </mxCell>
      </root>
    </mxGraphModel>
  </diagram>
</mxfile>
